# xmcd
#
# Track frame offsets:
#        150
#        15000
#        29235
#        50387
#        66845
#        93235
#        109045
#        129560
#        157897
#
# Disc length: 2456 seconds
#
# Revision: 2
# Processed by: cddbd v1.5.1PL0 Copyright (c) Steve Scherf et al.
# Submitted via: ExactAudioCopy v0.95a3
#
DISCID=68099609
DTITLE=Ry Cooder - Get Rhythm
DYEAR=1987
DGENRE=
TTITLE0=Get Rhythm
TTITLE1=Low-Commotion
TTITLE2=Going Back to Okinawa
TTITLE3=13 Quetion Method
TTITLE4=Women Will Rule the World
TTITLE5=All Shook Up
TTITLE6=I Can Tell by the Way You Smell
TTITLE7=Across the Borderline
TTITLE8=Let's Have a Ball
EXTD=
EXTT0=
EXTT1=
EXTT2=
EXTT3=
EXTT4=
EXTT5=
EXTT6=
EXTT7=
EXTT8=
PLAYORDER=
